<mxfile host="app.diagrams.net" modified="2023-12-01T08:48:38.463Z" agent="Mozilla/5.0 (Windows NT 10.0; Win64; x64; rv:120.0) Gecko/20100101 Firefox/120.0" etag="6cQRja3_oC7zzFRJXLgJ" version="22.1.5" type="device">
  <diagram name="Seite-1" id="34iR0h2kBpPRt8_v3ZGH">
    <mxGraphModel dx="1050" dy="566" grid="1" gridSize="10" guides="1" tooltips="1" connect="1" arrows="1" fold="1" page="1" pageScale="1" pageWidth="827" pageHeight="1169" math="0" shadow="0">
      <root>
        <mxCell id="0" />
        <mxCell id="1" parent="0" />
        <mxCell id="uNQC7zvdJVo9KdK5AONV-1" value="Tier" style="rounded=0;whiteSpace=wrap;html=1;fontStyle=1" vertex="1" parent="1">
          <mxGeometry x="60" y="80" width="100" height="40" as="geometry" />
        </mxCell>
        <mxCell id="uNQC7zvdJVo9KdK5AONV-2" value="Tier" style="rounded=0;whiteSpace=wrap;html=1;fontStyle=3" vertex="1" parent="1">
          <mxGeometry x="420" y="80" width="100" height="40" as="geometry" />
        </mxCell>
        <mxCell id="uNQC7zvdJVo9KdK5AONV-3" value="&lt;div&gt;&lt;b&gt;Tier&lt;/b&gt;&lt;/div&gt;{abstrakt}" style="rounded=0;whiteSpace=wrap;html=1;align=center;" vertex="1" parent="1">
          <mxGeometry x="240" y="80" width="100" height="40" as="geometry" />
        </mxCell>
        <mxCell id="uNQC7zvdJVo9KdK5AONV-5" value="" style="endArrow=none;html=1;rounded=0;strokeColor=#006666;strokeWidth=2;" edge="1" parent="1">
          <mxGeometry width="50" height="50" relative="1" as="geometry">
            <mxPoint x="200" y="140" as="sourcePoint" />
            <mxPoint x="200" y="60" as="targetPoint" />
          </mxGeometry>
        </mxCell>
        <mxCell id="uNQC7zvdJVo9KdK5AONV-6" value="" style="endArrow=none;html=1;rounded=0;strokeColor=#006666;strokeWidth=2;" edge="1" parent="1">
          <mxGeometry width="50" height="50" relative="1" as="geometry">
            <mxPoint x="380" y="140" as="sourcePoint" />
            <mxPoint x="380" y="60" as="targetPoint" />
          </mxGeometry>
        </mxCell>
      </root>
    </mxGraphModel>
  </diagram>
</mxfile>
